<svg width="24" height="24" viewBox="0 0 24 24" fill="none" xmlns="http://www.w3.org/2000/svg">
<path d="M21.0904 1.3457H2.68169C1.80017 1.3457 1.08569 2.03834 1.08569 2.89322V21.3975C1.08569 22.2523 1.80041 22.9457 2.68169 22.9457H21.0904C21.9719 22.9457 22.6855 22.2521 22.6855 21.3975V2.89322C22.6855 2.03858 21.9719 1.3457 21.0904 1.3457ZM7.63409 19.4263H4.37057V9.67418H7.63409V19.4263ZM6.00257 8.34194H5.98073C4.88633 8.34194 4.17689 7.59338 4.17689 6.65642C4.17689 5.7005 4.90721 4.97234 6.02321 4.97234C7.13945 4.97234 7.82609 5.70026 7.84769 6.65642C7.84769 7.59362 7.13969 8.34194 6.00257 8.34194ZM19.3984 19.4263H16.1359V14.2087C16.1359 12.8974 15.6631 12.0029 14.4832 12.0029C13.5806 12.0029 13.0449 12.6065 12.8097 13.189C12.7223 13.3973 12.701 13.6882 12.701 13.9791V19.4261H9.43889C9.43889 19.4261 9.48161 10.5886 9.43889 9.67394H12.7012V11.0566C13.1344 10.3923 13.9082 9.4445 15.641 9.4445C17.7883 9.4445 19.3984 10.8375 19.3984 13.8343V19.4263ZM12.6801 11.0875C12.6859 11.0784 12.6935 11.0674 12.7012 11.0568V11.0875H12.6801Z" fill="#020B75"/>
</svg>
