<svg width="24" height="24" viewBox="0 0 24 24" fill="none" xmlns="http://www.w3.org/2000/svg">
<path d="M21.0905 1.3457H2.68182C1.8003 1.3457 1.08582 2.03834 1.08582 2.89322V21.3975C1.08582 22.2523 1.80054 22.9457 2.68182 22.9457H21.0905C21.9721 22.9457 22.6856 22.2521 22.6856 21.3975V2.89322C22.6856 2.03858 21.9721 1.3457 21.0905 1.3457ZM7.63422 19.4263H4.3707V9.67418H7.63422V19.4263ZM6.0027 8.34194H5.98086C4.88646 8.34194 4.17702 7.59338 4.17702 6.65642C4.17702 5.7005 4.90734 4.97234 6.02334 4.97234C7.13958 4.97234 7.82622 5.70026 7.84782 6.65642C7.84782 7.59362 7.13982 8.34194 6.0027 8.34194ZM19.3985 19.4263H16.136V14.2087C16.136 12.8974 15.6632 12.0029 14.4833 12.0029C13.5807 12.0029 13.045 12.6065 12.8098 13.189C12.7225 13.3973 12.7011 13.6882 12.7011 13.9791V19.4261H9.43902C9.43902 19.4261 9.48174 10.5886 9.43902 9.67394H12.7013V11.0566C13.1345 10.3923 13.9083 9.4445 15.6411 9.4445C17.7884 9.4445 19.3985 10.8375 19.3985 13.8343V19.4263ZM12.6802 11.0875C12.686 11.0784 12.6937 11.0674 12.7013 11.0568V11.0875H12.6802Z" fill="#020B75"/>
</svg>
